<svg xmlns="http://www.w3.org/2000/svg" viewBox="0 0 512 512" role="img" aria-label="Terranex">
  <defs>
    <linearGradient id="bg" x1="72" y1="40" x2="448" y2="472" gradientUnits="userSpaceOnUse">
      <stop stop-color="#0f2f62"/>
      <stop offset="1" stop-color="#071a35"/>
    </linearGradient>
    <linearGradient id="tower" x1="112" y1="312" x2="264" y2="146" gradientUnits="userSpaceOnUse">
      <stop stop-color="#0ea5e9"/>
      <stop offset="1" stop-color="#38bdf8"/>
    </linearGradient>
    <linearGradient id="growth" x1="278" y1="328" x2="416" y2="178" gradientUnits="userSpaceOnUse">
      <stop stop-color="#14b8a6"/>
      <stop offset="1" stop-color="#86efac"/>
    </linearGradient>
  </defs>
  <rect width="512" height="512" rx="112" fill="url(#bg)"/>
  <path d="M98 342h52V242H98zm68 0h52V190h-52zm68 0h52V138h-52z" fill="url(#tower)"/>
  <path d="M106 382 256 258l66 55 82-100" fill="none" stroke="#f8fafc" stroke-width="28" stroke-linecap="round" stroke-linejoin="round" opacity=".96"/>
  <path d="m300 325 62-62 39 39 62-95" fill="none" stroke="url(#growth)" stroke-width="30" stroke-linecap="round" stroke-linejoin="round"/>
  <path d="m421 184 54 7-18 51z" fill="#86efac"/>
  <path d="M182 118h154v42h-55v176h-44V160h-55z" fill="#f8fafc"/>
</svg>
